<?xml version="1.0" encoding="UTF-8" standalone="no"?>
<!-- Created with Inkscape (http://www.inkscape.org/) -->

<svg
   width="1955.157"
   height="2729.0239"
   viewBox="0 0 1955.1569 2729.0242"
   id="svg2"
   version="1.1"
   inkscape:version="1.4 (86a8ad7, 2024-10-11)"
   sodipodi:docname="kiosk.svg"
   inkscape:export-filename="kiosk.png"
   inkscape:export-xdpi="90"
   inkscape:export-ydpi="90"
   xml:space="preserve"
   xmlns:inkscape="http://www.inkscape.org/namespaces/inkscape"
   xmlns:sodipodi="http://sodipodi.sourceforge.net/DTD/sodipodi-0.dtd"
   xmlns="http://www.w3.org/2000/svg"
   xmlns:svg="http://www.w3.org/2000/svg"
   xmlns:rdf="http://www.w3.org/1999/02/22-rdf-syntax-ns#"
   xmlns:cc="http://creativecommons.org/ns#"
   xmlns:dc="http://purl.org/dc/elements/1.1/"><defs
     id="defs4"><marker
       inkscape:stockid="Arrow1Lstart"
       orient="auto"
       refY="0"
       refX="0"
       id="Arrow1Lstart"
       style="overflow:visible"
       inkscape:isstock="true"><path
         id="path4170"
         d="M 0,0 5,-5 -12.5,0 5,5 Z"
         style="fill:#000000;fill-opacity:1;fill-rule:evenodd;stroke:#000000;stroke-width:1pt;stroke-opacity:1"
         transform="matrix(0.8,0,0,0.8,10,0)"
         inkscape:connector-curvature="0" /></marker></defs><sodipodi:namedview
     id="base"
     pagecolor="#ffffff"
     bordercolor="#666666"
     borderopacity="1.0"
     inkscape:pageopacity="0.0"
     inkscape:pageshadow="2"
     inkscape:zoom="0.24748737"
     inkscape:cx="-828.32509"
     inkscape:cy="1379.8684"
     inkscape:document-units="px"
     inkscape:current-layer="layer1"
     showgrid="false"
     units="px"
     inkscape:window-width="3840"
     inkscape:window-height="2126"
     inkscape:window-x="-11"
     inkscape:window-y="-11"
     inkscape:window-maximized="1"
     fit-margin-top="100"
     fit-margin-left="150"
     fit-margin-right="150"
     fit-margin-bottom="100"
     inkscape:showpageshadow="2"
     inkscape:pagecheckerboard="0"
     inkscape:deskcolor="#d1d1d1"><inkscape:grid
       type="xygrid"
       id="grid4149"
       originx="-1333.084"
       originy="-205.3185"
       spacingy="1"
       spacingx="1"
       units="px"
       visible="false" /></sodipodi:namedview><metadata
     id="metadata7"><rdf:RDF><cc:Work
         rdf:about=""><dc:format>image/svg+xml</dc:format><dc:type
           rdf:resource="http://purl.org/dc/dcmitype/StillImage" /></cc:Work></rdf:RDF></metadata><g
     inkscape:label="Calque 1"
     inkscape:groupmode="layer"
     id="layer1"
     transform="translate(-1333.0839,1450.4676)"><text
       xml:space="preserve"
       style="font-style:normal;font-variant:normal;font-weight:normal;font-stretch:normal;font-size:11.5664px;line-height:0%;font-family:Broadway;-inkscape-font-specification:Broadway;letter-spacing:0px;word-spacing:0px;fill:#ff6d41;fill-opacity:1;stroke:none;stroke-width:0.963873px;stroke-linecap:butt;stroke-linejoin:miter;stroke-opacity:1"
       x="1366.4033"
       y="1171.6582"
       id="text4177"><tspan
         sodipodi:role="line"
         id="tspan4179"
         x="1366.4033"
         y="1171.6582"
         style="font-style:normal;font-variant:normal;font-weight:normal;font-stretch:normal;font-size:766.444px;line-height:1.25;font-family:Nunito;-inkscape-font-specification:Nunito;fill:#ff6d41;fill-opacity:1;stroke-width:0.963873px">Kiosk</tspan></text><g
       id="g1"
       transform="matrix(0.36520381,0,0,0.36520381,1375.7409,-1352.2936)"><path
         id="p14CJmSIHO"
         d="m 1563,5110 c -29,-12 -37,-45 -31,-130 8,-111 62,-184 157,-210 54,-15 1688,-14 1748,2 59,14 127,78 142,133 6,22 11,72 11,112 0,63 -3,74 -22,87 -20,14 -131,16 -1003,15 -550,0 -990,-4 -1002,-9 z"
         style="fill:#8c818f;fill-opacity:1" /><path
         id="pkFThfWaM"
         d="m 2117,3468 c -4,-24 -9,-98 -13,-165 l -7,-123 h 463 463 l -7,123 c -4,67 -9,141 -13,165 l -5,42 h -438 -438 z"
         style="fill:#a59da7;fill-opacity:1" /><path
         id="p1FWvzbAk7"
         d="m 1399,3147 c -19,-13 -39,-38 -46,-57 -9,-27 -12,-393 -12,-1505 -1,-1380 0,-1472 17,-1504 9,-19 30,-44 45,-55 28,-21 31,-21 1157,-21 1126,0 1129,0 1157,21 15,11 36,36 45,55 17,32 18,124 17,1504 0,1112 -3,1478 -12,1505 -7,19 -27,44 -46,57 l -34,23 H 2560 1433 Z m 2023,-334 c 17,-15 18,-67 18,-1225 0,-1195 0,-1208 -20,-1228 -20,-20 -33,-20 -860,-20 -827,0 -840,0 -860,20 -20,20 -20,33 -20,1227 0,1109 1,1208 17,1225 15,17 55,18 861,18 773,0 847,-1 864,-17 z"
         style="fill:#8e8491" /><path
         id="p10JXCl7Yk"
         d="m 2460,2529 c -13,-6 -27,-13 -30,-17 -3,-4 -14,-12 -24,-18 -11,-6 -24,-19 -30,-30 -6,-10 -14,-21 -18,-24 -13,-10 -28,-61 -28,-96 0,-32 2,-34 33,-34 29,0 33,4 44,39 21,66 90,121 153,121 63,0 132,-55 153,-121 11,-35 15,-39 44,-39 31,0 33,2 33,34 0,35 -15,86 -28,96 -4,3 -12,14 -18,24 -6,11 -19,24 -30,30 -10,6 -21,14 -24,18 -20,27 -176,38 -230,17 z"
         style="fill:#8e8491" /><path
         id="pdWl99wmk"
         d="m 2330,2268 c 1,-43 35,-118 55,-118 8,0 15,-7 15,-15 0,-20 75,-54 118,-55 30,0 32,2 32,33 -1,29 -5,34 -54,56 -46,21 -56,31 -77,77 -22,49 -27,53 -56,54 -31,0 -33,-2 -33,-32 z"
         style="fill:#8e8491" /><path
         id="pnBTYIzXw"
         d="m 2701,2246 c -21,-46 -31,-56 -77,-77 -49,-22 -53,-27 -54,-56 0,-31 2,-33 33,-33 42,1 117,35 117,55 0,8 7,15 15,15 20,0 54,75 55,118 0,30 -2,32 -32,32 -30,-1 -35,-5 -57,-54 z"
         style="fill:#8e8491" /><path
         id="pPmWs0UQG"
         d="m 2465,2525 c -120,-43 -173,-209 -107,-336 38,-73 104,-109 202,-109 139,0 230,87 230,219 0,84 -17,131 -64,177 -62,62 -168,82 -261,49 z"
         style="fill:#e7976c" /><path
         id="pGFbsHdPU"
         d="m 2684,1107 c -2,-7 -3,-114 -2,-237 l 3,-225 234,-3 c 181,-2 236,1 243,10 13,22 10,442 -4,456 -18,18 -467,17 -474,-1 z"
         style="fill:#eec06b;fill-opacity:1" /><path
         id="pZPBxblie"
         d="m 2691,1816 c -8,-9 -11,-82 -9,-242 l 3,-229 234,-3 c 181,-2 236,1 243,10 13,22 10,452 -4,466 -19,19 -451,17 -467,-2 z"
         style="fill:#77d1b3;fill-opacity:1" /><path
         id="pVAEgDUkg"
         d="m 1965,1807 c -3,-7 -4,-114 -3,-237 l 3,-225 224,-3 c 158,-2 228,1 237,9 12,10 14,54 12,238 l -3,226 -233,3 c -183,2 -234,0 -237,-11 z"
         style="fill:#80b6fc;fill-opacity:1" /><path
         id="pbslxvfKJ"
         d="m 1968,1119 c -16,-9 -18,-31 -18,-239 0,-216 1,-230 19,-240 29,-15 444,-13 459,2 9,9 12,76 12,240 0,214 -1,228 -19,238 -26,13 -430,13 -453,-1 z"
         style="fill:#77d1b3;fill-opacity:1" /><path
         id="p103F2qJqJ"
         d="m 2200,4738 c 0,-7 -18,-283 -40,-613 -22,-330 -40,-610 -40,-622 v -23 h 440 440 v 23 c 0,12 -18,292 -40,622 -22,330 -40,606 -40,613 0,9 -79,12 -360,12 -281,0 -360,-3 -360,-12 z"
         style="fill:#c5bec6;fill-opacity:1" /><path
         id="pEb2p6PP0"
         d="m 1667,2842 c -16,-17 -17,-119 -17,-1255 0,-1224 0,-1237 20,-1257 20,-20 33,-20 890,-20 857,0 870,0 890,20 20,20 20,33 20,1258 0,1188 -1,1240 -18,1255 -17,16 -93,17 -894,17 -835,0 -876,-1 -891,-18 z m 984,-355 c 146,-77 143,-291 -6,-358 -108,-50 -239,6 -275,117 -42,126 58,264 190,264 30,0 63,-8 91,-23 z m 477,-699 c 14,-14 17,-384 4,-406 -7,-9 -56,-12 -213,-10 l -204,3 -3,199 c -2,138 1,203 9,212 15,19 389,20 407,2 z m -720,-197 c 2,-136 -1,-198 -9,-207 -10,-12 -50,-14 -208,-12 l -196,3 -3,195 c -1,107 0,200 3,207 3,11 48,13 207,11 l 203,-3 z m -17,-501 c 18,-10 19,-23 19,-208 0,-141 -3,-201 -12,-210 -15,-15 -370,-17 -399,-2 -18,10 -19,23 -19,210 0,179 2,200 18,209 23,14 367,14 393,1 z m 737,-12 c 14,-14 17,-374 4,-396 -7,-9 -56,-12 -213,-10 l -204,3 -3,195 c -1,107 0,200 2,207 7,18 396,19 414,1 z"
         style="fill:#ddebfd" /></g></g></svg>
